{"glyphs":{":":{"x_min":0,"x_max":302,"ha":302,"o":"m 92 179 l 164 144 l 172 49 l 114 8 l 21 30 l 14 114 z m 16 463 l 84 503 l 167 456 l 170 386 l 100 320 l 25 362 z"},"$":{"x_min":0,"x_max":729,"ha":729,"o":"m 664 550 l 546 405 l 431 528 l 289 576 l 254 531 l 664 256 l 500 42 l 206 42 l 1 205 l 90 354 l 259 208 l 444 163 l 471 204 l 34 450 l 279 724 l 500 724 z m 341 795 l 424 794 l 399 -20 l 283 -32 z"},"?":{"x_min":0,"x_max":531,"ha":531,"o":"m 298 68 l 263 3 l 174 0 l 138 54 l 162 140 l 242 144 z m 256 465 l 284 573 l 226 609 l 138 528 l 0 671 l 131 779 l 308 779 l 437 623 l 432 424 l 293 330 l 308 190 l 126 190 l 105 345 z"},"<":{"x_min":0,"x_max":833,"ha":833,"o":"m 691 780 q 689 778 702 762 q 714 746 731 727 q 750 705 776 678 q 619 611 495 557 q 442 534 391 512 q 340 490 300 472 q 261 455 236 444 q 211 433 211 432 q 210 431 234 417 q 258 403 298 380 q 339 358 390 329 q 442 300 496 270 q 550 241 602 212 q 654 184 694 162 q 735 139 760 125 q 785 111 785 110 q 785 109 772 90 q 759 71 744 49 q 729 27 716 8 q 704 -10 705 -10 q 705 -10 676 10 q 646 30 598 62 q 549 95 486 136 q 424 178 359 222 q 206 324 10 455 l 352 619 q 416 650 478 679 q 539 708 586 730 q 634 753 663 766 q 692 780 691 780 z"},"'":{"x_min":0,"x_max":111,"ha":111,"o":"m 37 785 l 91 776 l 91 665 l 38 593 l -3 609 l 38 691 l 37 785 z"},"=":{"x_min":0,"x_max":396,"ha":396,"o":"m 5 299 l 0 353 l 305 377 l 320 307 z m 5 435 l 0 488 l 305 512 l 320 442 z"},"a":{"x_min":0,"x_max":719,"ha":719,"o":"m 449 741 l 765 52 l 463 4 l 439 181 l 196 187 l 141 -2 l -150 50 l 249 721 l 449 741 z m 300 479 l 259 377 l 412 373 l 377 476 l 300 479 z"},"L":{"x_min":0,"x_max":635,"ha":635,"o":"m 278 717 l 249 269 l 556 306 l 584 75 l 28 9 l 0 749 l 278 717 z"},"3":{"x_min":0,"x_max":615,"ha":615,"o":"m 1 607 l 178 740 l 403 708 l 511 522 l 441 421 l 528 357 l 534 131 l 415 1 l 148 26 l 1 175 l 120 291 l 220 197 l 314 222 l 317 279 l 170 329 l 176 419 l 295 498 l 264 531 l 97 454 l 1 607 z"},";":{"x_min":0,"x_max":312,"ha":312,"o":"m 72 456 l 139 496 l 220 450 l 223 381 l 154 317 l 81 358 z m 89 95 l 164 91 l 142 -17 l 61 -92 l 11 -92 l 80 5 z"},"J":{"x_min":0,"x_max":687,"ha":687,"o":"m 0 739 l 219 744 l 658 724 l 658 528 l 459 509 l 533 162 l 430 32 l 235 0 l 18 0 l 25 220 l 263 237 l 236 509 l 0 528 l 0 739 z"},"V":{"x_min":0,"x_max":844,"ha":844,"o":"m 0 745 l 259 731 l 362 284 l 401 334 l 512 731 l 799 745 l 517 3 l 169 29 l 0 745 z"},"\"":{"x_min":0,"x_max":250,"ha":250,"o":"m 37 785 l 91 776 l 91 665 l 38 593 l -3 609 l 38 691 z m 205 776 l 205 665 l 152 593 l 111 609 l 152 691 l 151 785 z"},"7":{"x_min":0,"x_max":719,"ha":719,"o":"m 0 740 l 641 726 l 524 -3 l 234 66 l 393 501 l 51 473 l 0 740 z"},"S":{"x_min":0,"x_max":729,"ha":729,"o":"m 725 556 l 596 397 l 445 494 l 407 446 l 677 248 l 546 1 l 225 1 l 1 179 l 98 342 l 291 233 l 320 278 l 37 446 l 305 746 l 546 746 l 725 556 z"},"Z":{"x_min":0,"x_max":667,"ha":667,"o":"m 617 3 l 0 28 l 0 228 l 248 486 l 0 471 l 44 748 l 625 707 l 614 517 l 386 265 l 625 300 l 617 3 z"},"x":{"x_min":0,"x_max":761,"ha":761,"o":"m 200 739 l 357 579 l 473 750 l 663 568 l 525 405 l 753 226 l 563 7 l 399 221 l 191 12 l 0 201 l 221 400 l 53 588 l 200 739 z"},")":{"x_min":0,"x_max":263,"ha":263,"o":"m 0 785 l 71 785 l 175 658 l 251 402 l 211 131 l 105 2 l 33 2 l 159 170 l 184 397 l 119 627 l 0 785 z"},"_":{"x_min":0,"x_max":728,"ha":728,"o":"m 0 -28 l 0 27 l 728 27 l 728 -28 z"},"v":{"x_min":0,"x_max":844,"ha":844,"o":"m 0 745 l 259 731 l 362 284 l 401 334 l 512 731 l 799 745 l 517 3 l 169 29 l 0 745 z"},"O":{"x_min":0,"x_max":759,"ha":759,"o":"m 522 733 l 740 462 l 678 105 l 283 2 l -32 280 l 15 593 l 250 742 l 522 733 z m 309 481 l 258 367 l 346 308 l 439 342 l 434 453 l 309 481 z"},"(":{"x_min":0,"x_max":246,"ha":246,"o":"m 250 780 l 132 622 l 67 392 l 92 166 l 218 -2 l 146 -2 l 40 126 l 0 397 l 76 653 l 180 780 l 250 780 z"},"C":{"x_min":0,"x_max":615,"ha":615,"o":"m 287 744 l 563 726 l 552 461 l 372 545 l 215 472 l 208 302 l 346 208 l 549 314 l 617 35 l 218 0 l 23 171 l -35 386 l 55 617 l 287 744 z"},"W":{"x_min":0,"x_max":1031,"ha":1031,"o":"m 1028 675 l 709 6 l 523 6 l 454 207 l 352 5 l 182 0 l 0 723 l 238 744 l 283 562 l 337 385 l 502 550 l 627 362 l 778 729 l 1028 675 z"},"A":{"x_min":0,"x_max":719,"ha":719,"o":"m 449 741 l 765 52 l 463 4 l 439 181 l 196 187 l 141 -2 l -150 50 l 249 721 l 449 741 z m 300 479 l 259 377 l 412 373 l 377 476 l 300 479 z"},"f":{"x_min":0,"x_max":542,"ha":542,"o":"m 49 746 l 553 742 l 525 501 l 250 532 l 246 452 l 479 464 l 441 244 l 246 269 l 288 3 l 22 3 l 1 543 l 49 746 z"},"Q":{"x_min":0,"x_max":750,"ha":750,"o":"m 531 731 l 721 478 l 653 216 l 797 84 l 621 -2 l 535 61 l 238 -3 l -21 243 l 26 593 l 260 740 l 531 731 z m 228 477 l 221 272 l 385 223 l 294 313 l 426 409 l 505 336 l 532 388 l 432 523 l 228 477 z"},"w":{"x_min":0,"x_max":1031,"ha":1031,"o":"m 1028 675 l 709 6 l 523 6 l 454 207 l 352 5 l 182 0 l 0 723 l 238 744 l 283 562 l 337 385 l 502 550 l 627 362 l 778 729 l 1028 675 z"},"-":{"x_min":0,"x_max":437,"ha":437,"o":"m 6 342 l 1 431 l 325 471 l 341 354 l 6 342 z"},"E":{"x_min":0,"x_max":573,"ha":573,"o":"m 54 745 l 544 745 l 503 538 l 262 501 l 259 450 l 472 434 l 462 275 l 272 258 l 289 204 l 520 202 l 605 3 l 54 3 l 0 481 l 54 745 z"},"s":{"x_min":0,"x_max":729,"ha":729,"o":"m 725 556 l 596 397 l 445 494 l 407 446 l 677 248 l 546 1 l 225 1 l 1 179 l 98 342 l 291 233 l 320 278 l 37 446 l 305 746 l 546 746 l 725 556 z"},">":{"x_min":0,"x_max":833,"ha":833,"o":"m 103 -8 q 105 -6 92 10 q 80 26 63 45 q 44 67 18 94 q 175 161 299 215 q 352 238 402 260 q 453 282 493 300 q 533 317 558 328 q 582 339 583 340 q 584 341 560 355 q 536 369 496 392 q 455 414 404 443 q 352 472 298 502 q 244 531 192 560 q 140 588 100 610 q 59 633 34 647 q 9 661 9 662 q 9 663 22 682 q 35 701 50 723 q 65 745 78 764 q 90 782 89 782 q 88 782 118 762 q 147 742 196 709 q 245 676 308 634 q 370 592 435 549 q 588 447 784 317 l 442 153 q 378 122 316 93 q 255 64 207 41 q 159 18 130 4 q 102 -9 103 -8 z"},"l":{"x_min":0,"x_max":635,"ha":635,"o":"m 278 717 l 249 269 l 556 306 l 584 75 l 28 9 l 0 749 l 278 717 z"},"8":{"x_min":0,"x_max":625,"ha":625,"o":"m 461 716 l 533 519 l 446 450 l 562 355 l 577 61 l 414 -3 l 154 -3 l 0 87 l 17 351 l 139 444 l 46 519 l 116 745 l 461 716 z m 364 259 l 306 283 l 248 259 l 248 211 l 306 187 l 364 211 l 364 259 z m 332 587 l 288 605 l 244 587 l 244 551 l 288 533 l 332 551 l 332 587 z"},"\\":{"x_min":0,"x_max":448,"ha":448,"o":"m 96 718 l 470 4 l 272 32 l -81 746 l 96 718 z"},"e":{"x_min":0,"x_max":573,"ha":573,"o":"m 54 745 l 544 745 l 503 538 l 262 501 l 259 450 l 472 434 l 462 275 l 272 258 l 289 204 l 520 202 l 605 3 l 54 3 l 0 481 l 54 745 z"},"b":{"x_min":0,"x_max":605,"ha":605,"o":"m 138 747 l 485 706 l 565 578 l 559 441 l 507 363 l 580 321 l 629 178 l 573 45 l 457 4 l 21 1 l 1 704 l 138 747 z m 257 152 l 359 174 l 359 242 l 257 277 l 257 152 z m 244 462 l 345 483 l 345 565 l 244 587 l 244 462 z"},"%":{"x_min":0,"x_max":615,"ha":615,"o":"m 389 745 l 572 774 l 206 33 l 0 4 z m 475 293 l 544 213 l 522 35 l 412 0 l 324 88 l 342 242 l 404 297 l 475 293 z m 426 195 l 417 129 l 435 114 l 454 128 l 451 185 l 426 195 z m 191 768 l 260 687 l 238 510 l 128 474 l 38 564 l 57 717 l 119 771 l 191 768 z m 141 670 l 132 604 l 149 589 l 169 603 l 165 659 l 141 670 z"},"m":{"x_min":0,"x_max":1156,"ha":1156,"o":"m 0 76 l 357 737 l 568 737 l 638 537 l 762 738 l 949 742 l 1154 23 l 887 1 l 836 183 l 775 359 l 591 195 l 450 382 l 281 23 l 0 76 z"},"#":{"x_min":0,"x_max":833,"ha":833,"o":"m 274 749 l 395 778 l 292 29 l 156 0 z m 544 749 l 666 778 l 562 29 l 426 0 l 526 724 z m 718 601 l 810 451 l 113 429 l 4 594 z m 733 328 l 829 166 l 135 147 l 60 316 z"},",":{"x_min":0,"x_max":145,"ha":145,"o":"m 58 81 l 138 76 l 114 -39 l 28 -119 l -25 -119 l 48 -15 l 58 81 z"},"n":{"x_min":0,"x_max":687,"ha":687,"o":"m 0 13 l 133 742 l 284 742 l 425 510 l 437 742 l 669 706 l 620 4 l 428 16 l 280 242 l 237 3 l 0 13 z"},"h":{"x_min":0,"x_max":687,"ha":687,"o":"m 0 698 l 252 746 l 264 441 l 411 463 l 420 732 l 626 723 l 666 5 l 434 13 l 432 238 l 292 211 l 297 5 l 80 5 l 0 698 z"},"z":{"x_min":0,"x_max":667,"ha":667,"o":"m 617 3 l 0 28 l 0 228 l 248 486 l 0 471 l 44 748 l 625 707 l 614 517 l 386 265 l 625 300 l 617 3 z"},"B":{"x_min":0,"x_max":605,"ha":605,"o":"m 138 747 l 485 706 l 565 578 l 559 441 l 507 363 l 580 321 l 629 178 l 573 45 l 457 4 l 21 1 l 1 704 l 138 747 z m 257 152 l 359 174 l 359 242 l 257 277 l 257 152 z m 244 462 l 345 483 l 345 565 l 244 587 l 244 462 z"},"K":{"x_min":0,"x_max":605,"ha":605,"o":"m 14 741 l 223 741 l 218 539 l 375 718 l 518 566 l 337 369 l 605 178 l 440 0 l 216 243 l 257 -2 l 0 -2 l 14 741 z"},"R":{"x_min":0,"x_max":677,"ha":677,"o":"m 415 739 l 600 604 l 617 371 l 513 255 l 698 92 l 481 -2 l 254 192 l 288 -1 l 58 -1 l 0 707 l 415 739 z m 254 532 l 248 390 l 309 382 l 370 470 l 254 532 z"},"T":{"x_min":0,"x_max":791,"ha":791,"o":"m 0 742 l 739 729 l 739 429 l 489 470 l 558 -1 l 200 -1 l 254 470 l 0 483 l 0 742 z"},"P":{"x_min":0,"x_max":636,"ha":636,"o":"m 442 740 l 618 619 l 632 323 l 454 151 l 233 137 l 233 -4 l 0 -4 l 37 740 l 442 740 z m 274 512 l 267 391 l 333 382 l 417 481 l 274 512 z"},"|":{"x_min":0,"x_max":167,"ha":167,"o":"m 60 -121 l 5 -121 l 3 853 l 58 853 z"},"t":{"x_min":0,"x_max":791,"ha":791,"o":"m 0 742 l 739 729 l 739 429 l 489 470 l 558 -1 l 200 -1 l 254 470 l 0 483 l 0 742 z"},"M":{"x_min":0,"x_max":1156,"ha":1156,"o":"m 0 76 l 357 737 l 568 737 l 638 537 l 762 738 l 949 742 l 1154 23 l 887 1 l 836 183 l 775 359 l 591 195 l 450 382 l 281 23 l 0 76 z"},"g":{"x_min":0,"x_max":667,"ha":667,"o":"m 627 591 l 456 495 l 387 533 l 285 502 l 224 357 l 288 222 l 472 244 l 476 277 l 334 264 l 352 465 l 648 461 l 648 66 l 151 2 l 0 309 l 55 591 l 267 745 l 527 727 l 627 591 z"},"j":{"x_min":0,"x_max":687,"ha":687,"o":"m 0 739 l 219 744 l 658 724 l 658 528 l 459 509 l 533 162 l 430 32 l 235 0 l 18 0 l 25 220 l 263 237 l 236 509 l 0 528 l 0 739 z"},"i":{"x_min":0,"x_max":365,"ha":365,"o":"m 5 739 l 199 751 l 349 43 l 31 8 l 5 739 z"},"y":{"x_min":0,"x_max":625,"ha":625,"o":"m 71 733 l 236 557 l 391 753 l 610 588 l 371 380 l 548 13 l 156 31 l 156 350 l -93 588 l 71 733 z"},"@":{"x_min":0,"x_max":917,"ha":917,"o":"m 422 103 l 606 184 l 657 125 l 441 2 l 160 63 l 3 349 l 116 715 l 381 854 l 786 684 l 869 344 l 800 248 l 744 167 l 636 182 l 594 233 l 461 169 l 234 206 l 183 482 l 323 672 l 510 664 l 596 607 l 599 637 l 670 600 l 653 418 l 677 260 l 722 243 l 783 364 l 710 615 l 385 748 l 197 637 l 119 371 l 212 165 l 422 103 z m 381 514 l 336 445 l 365 351 l 451 351 l 508 418 l 479 504 l 381 514 z"},".":{"x_min":0,"x_max":302,"ha":302,"o":"m 107 173 l 186 173 l 233 91 l 200 30 l 107 9 l 64 82 l 107 173 z"},"p":{"x_min":0,"x_max":636,"ha":636,"o":"m 442 740 l 618 619 l 632 323 l 454 151 l 233 137 l 233 -4 l 0 -4 l 37 740 l 442 740 z m 274 512 l 267 391 l 333 382 l 417 481 l 274 512 z"},"X":{"x_min":0,"x_max":761,"ha":761,"o":"m 200 739 l 357 579 l 473 750 l 663 568 l 525 405 l 753 226 l 563 7 l 399 221 l 191 12 l 0 201 l 221 400 l 53 588 l 200 739 z"},"*":{"x_min":0,"x_max":258,"ha":258,"o":"m 67 719 l 97 720 l 93 653 l 144 696 l 158 662 l 99 638 l 161 608 l 141 585 l 93 620 l 99 558 l 66 561 l 72 620 l 22 584 l 0 612 l 67 638 l 5 663 l 22 692 l 72 656 l 67 719 z"},"Y":{"x_min":0,"x_max":625,"ha":625,"o":"m 71 733 l 236 557 l 391 753 l 610 588 l 371 380 l 548 13 l 156 31 l 156 350 l -93 588 l 71 733 z"},"c":{"x_min":0,"x_max":615,"ha":615,"o":"m 287 744 l 563 726 l 552 461 l 372 545 l 215 472 l 208 302 l 346 208 l 549 314 l 617 35 l 218 0 l 23 171 l -35 386 l 55 617 l 287 744 z"},"!":{"x_min":0,"x_max":323,"ha":323,"o":"m 71 78 l 106 144 l 197 148 l 233 92 l 209 4 l 128 1 z m 213 219 l 93 210 l 0 768 l 197 796 z"},"/":{"x_min":0,"x_max":572,"ha":572,"o":"m 375 727 l 551 755 l 198 41 l 0 13 l 375 727 z"},"[":{"x_min":0,"x_max":219,"ha":219,"o":"m 233 856 l 241 782 l 89 795 l 84 -15 l 241 15 l 241 -83 l 7 -98 l 2 866 z"},"6":{"x_min":0,"x_max":594,"ha":594,"o":"m 154 719 l 335 746 l 515 709 l 447 499 l 286 559 l 211 500 l 202 444 l 416 438 l 501 300 l 499 120 l 380 1 l 136 1 l 0 120 l 0 371 l 28 575 l 154 719 z m 258 267 l 211 244 l 213 185 l 292 185 l 308 249 l 258 267 z"},"r":{"x_min":0,"x_max":677,"ha":677,"o":"m 415 739 l 600 604 l 617 371 l 513 255 l 698 92 l 481 -2 l 254 192 l 288 -1 l 58 -1 l 0 707 l 415 739 z m 254 532 l 248 390 l 309 382 l 370 470 l 254 532 z"},"2":{"x_min":0,"x_max":729,"ha":729,"o":"m 4 605 l 211 742 l 392 741 l 544 629 l 610 352 l 411 221 l 629 239 l 686 1 l 110 9 l 34 156 l 330 390 l 309 454 l 261 492 l 140 409 l 4 605 z"},"9":{"x_min":0,"x_max":562,"ha":562,"o":"m 306 747 l 533 593 l 524 320 l 447 127 l 116 1 l 0 161 l 264 230 l 319 327 l 137 313 l 0 463 l 36 677 l 306 747 z m 225 480 l 312 480 l 321 527 l 281 560 l 225 527 l 225 480 z"}," ":{"x_min":0,"x_max":500,"ha":500,"o":""},"I":{"x_min":0,"x_max":365,"ha":365,"o":"m 5 739 l 199 751 l 349 43 l 31 8 l 5 739 z"},"H":{"x_min":0,"x_max":687,"ha":687,"o":"m 0 698 l 252 746 l 264 441 l 411 463 l 420 732 l 626 723 l 666 5 l 434 13 l 432 238 l 292 211 l 297 5 l 80 5 l 0 698 z"},"4":{"x_min":0,"x_max":761,"ha":761,"o":"m 531 409 l 689 402 l 689 223 l 548 214 l 575 31 l 318 4 l 314 214 l 8 214 l 4 400 l 208 747 l 487 728 l 531 409 z m 216 409 l 305 409 l 297 513 l 216 409 z"},"D":{"x_min":0,"x_max":635,"ha":635,"o":"m 368 744 l 578 572 l 621 171 l 414 2 l 0 2 l 0 699 l 368 744 z m 229 477 l 229 259 l 364 306 l 364 415 l 229 477 z"},"^":{"x_min":0,"x_max":395,"ha":395,"o":"m 296 599 q 295 600 287 593 q 279 586 269 577 q 258 566 244 553 q 219 595 199 628 q 182 657 168 680 q 153 704 152 705 q 152 705 144 693 q 137 681 126 663 q 116 645 104 624 q 92 602 82 584 q 71 565 64 553 q 56 541 56 541 q 55 541 46 547 q 37 553 26 560 q 15 567 6 572 q -3 578 -3 578 q -3 578 4 588 q 10 598 21 616 q 32 633 46 655 q 60 677 75 700 l 153 822 l 225 710 q 238 689 251 669 q 264 649 274 633 q 284 617 290 608 q 296 599 296 599 z"},"0":{"x_min":0,"x_max":553,"ha":553,"o":"m 381 732 l 552 531 l 497 90 l 224 1 l 3 223 l 48 606 l 202 742 l 381 732 z m 257 488 l 235 324 l 279 287 l 327 321 l 318 462 l 257 488 z"},"F":{"x_min":0,"x_max":573,"ha":573,"o":"m 49 746 l 553 742 l 525 501 l 250 532 l 246 452 l 479 464 l 441 244 l 246 269 l 288 3 l 22 3 l 1 543 l 49 746 z"},"k":{"x_min":0,"x_max":605,"ha":605,"o":"m 14 741 l 223 741 l 218 539 l 375 718 l 518 566 l 337 369 l 605 178 l 440 0 l 216 243 l 257 -2 l 0 -2 l 14 741 z"},"u":{"x_min":0,"x_max":729,"ha":729,"o":"m -9 739 l 314 739 l 299 234 l 424 324 l 387 685 l 694 685 l 694 199 l 515 -3 l 138 -3 l -9 177 l -9 739 z"},"]":{"x_min":0,"x_max":344,"ha":344,"o":"m 9 -88 l 1 -14 l 153 -27 l 158 783 l 1 753 l 1 851 l 235 866 l 240 -98 z"},"U":{"x_min":0,"x_max":729,"ha":729,"o":"m -9 739 l 314 739 l 299 234 l 424 324 l 387 685 l 694 685 l 694 199 l 515 -3 l 138 -3 l -9 177 l -9 739 z"},"o":{"x_min":0,"x_max":759,"ha":759,"o":"m 522 733 l 740 462 l 678 105 l 283 2 l -32 280 l 15 593 l 250 742 l 522 733 z m 309 481 l 258 367 l 346 308 l 439 342 l 434 453 l 309 481 z"},"N":{"x_min":0,"x_max":687,"ha":687,"o":"m 0 13 l 133 742 l 284 742 l 425 510 l 437 742 l 669 706 l 620 4 l 428 16 l 280 242 l 237 3 l 0 13 z"},"+":{"x_min":0,"x_max":412,"ha":412,"o":"m 222 524 l 220 424 l 323 434 l 336 320 l 220 325 l 233 221 l 125 213 l 116 325 l 15 328 l -2 423 l 119 423 l 108 529 l 222 524 z"},"G":{"x_min":0,"x_max":667,"ha":667,"o":"m 627 591 l 456 495 l 387 533 l 285 502 l 224 357 l 288 222 l 472 244 l 476 277 l 334 264 l 352 465 l 648 461 l 648 66 l 151 2 l 0 309 l 55 591 l 267 745 l 527 727 l 627 591 z"},"q":{"x_min":0,"x_max":750,"ha":750,"o":"m 531 731 l 721 478 l 653 216 l 797 84 l 621 -2 l 535 61 l 238 -3 l -21 243 l 26 593 l 260 740 l 531 731 z m 228 477 l 221 272 l 385 223 l 294 313 l 426 409 l 505 336 l 532 388 l 432 523 l 228 477 z"},"d":{"x_min":0,"x_max":635,"ha":635,"o":"m 368 744 l 578 572 l 621 171 l 414 2 l 0 2 l 0 699 l 368 744 z m 229 477 l 229 259 l 364 306 l 364 415 l 229 477 z"},"1":{"x_min":0,"x_max":708,"ha":708,"o":"m 527 727 l 468 205 l 679 232 l 713 1 l 0 1 l 20 218 l 258 205 l 258 476 l 133 397 l 0 578 l 269 741 l 527 727 z"},"5":{"x_min":0,"x_max":666,"ha":666,"o":"m 572 741 l 530 543 l 247 546 l 253 501 l 415 495 l 610 389 l 609 166 l 534 45 l 189 10 l 7 95 l 88 248 l 212 205 l 324 200 l 368 251 l 318 298 l 91 293 l 10 433 l 0 724 l 572 741 z"}}}
